<?xml version="1.0" standalone="no"?>
<!DOCTYPE svg PUBLIC "-//W3C//DTD SVG 20010904//EN"
 "http://www.w3.org/TR/2001/REC-SVG-20010904/DTD/svg10.dtd">
<svg version="1.0" xmlns="http://www.w3.org/2000/svg"
 width="500.000000pt" height="500.000000pt" viewBox="0 0 500.000000 500.000000"
 preserveAspectRatio="xMidYMid meet">

<g transform="translate(0.000000,500.000000) scale(0.100000,-0.100000)"
fill="#000000" stroke="none">
<path d="M2340 4989 c-176 -11 -258 -24 -454 -74 -471 -119 -868 -353 -1207
-710 -316 -334 -535 -767 -629 -1243 -29 -150 -40 -275 -40 -472 0 -214 11
-326 51 -515 136 -645 543 -1226 1114 -1589 264 -168 665 -316 960 -355 516
-68 980 1 1425 211 174 82 375 208 516 323 91 74 275 260 353 355 260 319 425
664 505 1055 50 244 56 307 51 545 -6 274 -9 302 -50 495 -136 632 -464 1135
-995 1522 -280 203 -667 362 -1045 427 -76 13 -389 39 -420 34 -5 0 -66 -4
-135 -9z m935 -938 c356 -53 606 -243 718 -546 67 -181 72 -254 72 -1015 0
-766 -7 -850 -90 -1045 -76 -177 -263 -356 -456 -435 -168 -70 -394 -85 -1164
-77 -593 6 -688 13 -837 65 -197 67 -362 207 -465 392 -36 64 -78 190 -92 275
-21 119 -31 398 -31 820 0 653 17 872 79 1028 47 118 99 197 190 288 168 168
330 234 635 259 152 12 1344 5 1441 -9z"/>
<path d="M1949 3770 c-215 -11 -300 -28 -406 -80 -181 -89 -271 -239 -305
-505 -17 -134 -16 -1225 2 -1370 46 -383 203 -537 590 -577 163 -17 1218 -16
1364 0 253 30 411 124 493 294 73 151 82 257 82 1048 1 610 -2 661 -49 813
-22 71 -80 166 -131 214 -88 82 -216 132 -394 153 -118 14 -1021 21 -1246 10z
m1482 -272 c62 -34 89 -85 89 -163 0 -76 -14 -109 -64 -152 -80 -71 -219 -48
-283 46 -18 27 -23 48 -23 103 0 83 15 115 72 157 37 27 50 31 106 31 47 0 74
-6 103 -22z m-721 -218 c108 -31 204 -80 288 -149 134 -111 213 -220 265 -368
28 -79 31 -102 35 -235 3 -112 0 -165 -12 -221 -57 -254 -274 -487 -536 -577
-90 -31 -312 -39 -422 -17 -250 52 -469 233 -574 476 -64 150 -73 407 -19 569
81 242 274 430 530 516 119 41 312 43 445 6z"/>
<path d="M2415 3010 c-155 -32 -296 -135 -369 -270 -31 -57 -66 -186 -66 -244
0 -110 69 -271 152 -356 97 -99 223 -150 371 -150 208 0 369 104 464 298 155
321 -74 697 -442 725 -38 3 -88 2 -110 -3z"/>
</g>
</svg>
