<?xml version="1.0" standalone="no"?>
<!DOCTYPE svg PUBLIC "-//W3C//DTD SVG 20010904//EN"
 "http://www.w3.org/TR/2001/REC-SVG-20010904/DTD/svg10.dtd">
<svg version="1.0" xmlns="http://www.w3.org/2000/svg"
 width="499.000000pt" height="499.000000pt" viewBox="0 0 499.000000 499.000000"
 preserveAspectRatio="xMidYMid meet">

<g transform="translate(0.000000,499.000000) scale(0.100000,-0.100000)"
fill="#000000" stroke="none">
<path d="M2405 4525 c-11 -2 -72 -8 -135 -15 -157 -15 -409 -76 -490 -117 -14
-7 -31 -13 -39 -13 -7 0 -30 -8 -50 -18 -20 -11 -61 -31 -91 -46 -117 -57
-320 -183 -320 -198 0 -4 -5 -8 -12 -8 -6 0 -18 -7 -27 -15 -9 -8 -38 -34 -66
-57 -64 -54 -169 -159 -223 -223 -23 -27 -49 -57 -57 -66 -8 -9 -15 -21 -15
-27 0 -7 -4 -12 -8 -12 -15 0 -141 -203 -198 -320 -58 -119 -64 -132 -64 -143
0 -7 -6 -23 -13 -37 -18 -36 -61 -179 -85 -285 -61 -268 -61 -592 0 -860 24
-106 67 -249 85 -285 7 -14 13 -30 13 -37 0 -6 8 -28 18 -50 10 -21 29 -60 42
-88 13 -27 32 -62 42 -77 10 -14 18 -31 18 -37 0 -7 5 -17 10 -24 18 -22 58
-81 90 -135 17 -28 36 -52 41 -52 5 0 9 -6 9 -13 0 -7 8 -20 17 -29 10 -9 36
-38 58 -64 49 -61 154 -166 220 -222 28 -23 57 -49 66 -57 9 -8 21 -15 27 -15
7 0 12 -4 12 -9 0 -5 24 -24 53 -41 53 -32 112 -72 134 -90 7 -5 17 -10 24
-10 6 0 23 -8 37 -18 15 -10 50 -29 77 -42 28 -13 67 -32 88 -42 22 -10 44
-18 50 -18 7 0 23 -6 37 -13 36 -18 179 -61 285 -85 268 -61 592 -61 860 0
106 24 249 67 285 85 14 7 30 13 37 13 6 0 28 8 50 18 21 10 61 29 88 42 28
13 62 32 77 42 14 10 31 18 37 18 7 0 17 5 24 10 22 18 81 58 135 90 28 17 52
36 52 41 0 5 5 9 12 9 6 0 18 7 27 15 9 8 39 34 66 57 66 56 171 161 220 222
22 26 48 55 58 64 9 9 17 22 17 29 0 7 4 13 9 13 5 0 24 24 41 53 32 53 72
112 90 134 5 7 10 17 10 24 0 6 8 23 18 37 10 15 29 50 42 77 13 28 32 67 42
88 10 22 18 44 18 50 0 7 6 23 13 37 18 36 61 179 85 285 61 268 61 592 0 860
-24 106 -67 249 -85 285 -7 14 -13 30 -13 37 0 27 -146 308 -180 348 -10 11
-30 41 -45 68 -15 26 -31 47 -36 47 -5 0 -9 5 -9 12 0 6 -7 18 -15 27 -8 9
-34 39 -57 66 -54 64 -159 169 -223 223 -27 23 -57 49 -66 57 -9 8 -21 15 -27
15 -7 0 -12 4 -12 8 0 15 -203 141 -320 198 -119 58 -132 64 -143 64 -7 0 -23
6 -37 13 -72 37 -322 99 -465 116 -99 12 -309 22 -340 16z m-445 -801 c14 -20
33 -43 43 -52 9 -9 17 -20 17 -24 0 -4 6 -16 14 -25 52 -64 107 -134 134 -173
17 -25 52 -72 77 -105 25 -33 68 -89 95 -125 27 -36 70 -92 95 -125 25 -33 62
-84 82 -112 20 -29 40 -53 44 -53 5 0 9 -5 9 -11 0 -19 73 -101 80 -89 7 12
211 230 303 323 31 32 57 61 57 64 0 3 25 29 55 59 30 30 55 57 55 60 0 3 26
31 58 63 31 33 107 112 167 177 61 64 124 132 142 151 l31 33 114 0 c82 -1
108 -3 95 -11 -9 -5 -17 -14 -17 -19 0 -5 -22 -31 -48 -57 -27 -26 -102 -106
-167 -178 -65 -71 -140 -152 -167 -178 -26 -26 -48 -50 -48 -53 0 -3 -27 -33
-60 -67 -116 -118 -148 -153 -265 -282 -65 -71 -140 -152 -166 -179 l-48 -48
26 -39 c14 -21 30 -39 34 -39 5 0 9 -4 9 -10 0 -12 90 -132 108 -143 6 -4 12
-15 12 -22 0 -8 3 -15 8 -15 4 -1 23 -24 42 -52 19 -28 43 -58 53 -66 9 -9 17
-20 17 -25 0 -4 5 -13 10 -20 23 -27 106 -136 120 -157 8 -12 20 -28 25 -34 6
-6 27 -34 48 -61 20 -28 46 -61 57 -75 18 -23 35 -46 126 -167 19 -27 57 -77
84 -113 106 -140 150 -201 150 -206 0 -2 8 -13 18 -23 31 -34 62 -73 62 -78 0
-2 15 -23 33 -46 19 -23 37 -48 41 -55 6 -9 -75 -12 -389 -12 l-395 0 -33 46
c-36 53 -118 160 -141 187 -9 9 -16 19 -16 21 0 9 -102 141 -111 144 -5 2 -9
8 -9 12 0 8 -95 139 -109 150 -3 3 -10 12 -16 21 -37 59 -89 129 -96 129 -5 0
-9 4 -9 9 0 12 -99 145 -111 149 -5 2 -9 8 -9 13 0 5 -17 31 -37 57 l-38 47
-45 -48 c-52 -55 -150 -159 -219 -232 -26 -27 -99 -106 -162 -175 -62 -69
-135 -147 -161 -173 -26 -26 -48 -50 -48 -53 0 -3 -26 -31 -57 -63 -32 -32
-97 -99 -144 -150 l-86 -92 -111 3 -112 3 85 90 c46 50 115 123 152 164 37 41
88 95 113 121 25 26 97 103 160 171 63 68 135 145 160 171 25 26 77 82 115
124 39 43 90 99 115 124 102 107 140 150 140 157 0 7 -66 94 -125 166 -8 9
-15 21 -15 25 0 4 -8 15 -17 24 -10 9 -29 33 -43 53 -14 20 -33 46 -42 56 -10
10 -18 21 -18 24 0 5 -22 36 -150 205 -27 36 -79 106 -116 155 -36 50 -70 92
-75 93 -5 2 -9 8 -9 12 0 8 -95 139 -109 150 -3 3 -10 12 -16 21 -5 9 -37 53
-70 99 -33 45 -64 89 -70 98 -5 8 -17 23 -25 33 -40 46 -60 71 -60 76 0 2 -15
23 -33 46 -19 23 -37 48 -41 55 -6 9 73 12 381 12 l388 -1 25 -35z"/>
<path d="M1510 3585 c0 -6 17 -28 217 -293 26 -35 64 -85 83 -112 84 -116 136
-184 153 -201 9 -11 17 -22 17 -27 0 -4 8 -15 18 -24 9 -8 33 -38 52 -66 19
-28 38 -51 43 -52 4 0 7 -6 7 -13 0 -7 8 -20 18 -29 9 -8 33 -38 52 -66 19
-28 38 -51 43 -52 4 0 7 -6 7 -13 0 -7 8 -20 18 -29 9 -8 33 -38 52 -66 19
-28 38 -51 43 -52 4 0 7 -6 7 -14 0 -8 4 -16 9 -18 12 -4 261 -337 261 -348 0
-4 4 -10 9 -12 8 -3 111 -135 111 -143 0 -4 34 -46 63 -76 9 -10 17 -21 17
-23 0 -9 102 -141 111 -144 5 -2 9 -8 9 -13 0 -10 101 -142 112 -147 5 -2 8
-10 8 -18 0 -8 7 -17 15 -20 8 -4 15 -10 15 -16 0 -5 14 -27 32 -49 l31 -39
175 0 174 0 -18 28 c-10 15 -22 32 -28 38 -6 6 -18 22 -26 34 -30 45 -85 115
-92 118 -5 2 -8 9 -8 16 0 6 -8 19 -17 28 -10 8 -34 38 -53 66 -19 28 -38 51
-42 52 -5 0 -8 5 -8 12 0 6 -7 18 -15 27 -33 35 -105 130 -105 139 0 6 -7 12
-15 16 -8 3 -15 12 -15 21 0 8 -3 15 -7 15 -5 1 -24 24 -43 52 -19 28 -43 58
-52 66 -10 9 -18 22 -18 29 0 7 -3 13 -7 13 -5 1 -24 24 -43 52 -19 28 -43 58
-52 66 -10 9 -18 22 -18 28 0 7 -3 14 -7 16 -5 2 -25 26 -46 53 -20 28 -46 61
-57 75 -80 104 -215 287 -235 319 -5 9 -13 18 -16 21 -14 11 -109 142 -109
150 0 4 -4 10 -9 12 -5 2 -46 53 -91 113 -45 61 -86 112 -91 113 -5 2 -9 7 -9
12 0 5 -43 66 -95 137 -53 70 -115 154 -138 185 l-42 58 -177 0 c-98 0 -178
-2 -178 -5z"/>
</g>
</svg>
